<svg xmlns="http://www.w3.org/2000/svg" xmlns:xlink="http://www.w3.org/1999/xlink" version="1.1" x="0px" y="0px" viewBox="0 0 24 30" style="enable-background:new 0 0 24 24;" xml:space="preserve"><g><g><path d="M0.5,5.5h23C23.776,5.5,24,5.276,24,5s-0.224-0.5-0.5-0.5h-23C0.224,4.5,0,4.724,0,5S0.224,5.5,0.5,5.5z"/><path d="M23.5,11.5h-23C0.224,11.5,0,11.724,0,12s0.224,0.5,0.5,0.5h23c0.276,0,0.5-0.224,0.5-0.5S23.776,11.5,23.5,11.5z"/><path d="M23.5,18.5h-23C0.224,18.5,0,18.724,0,19s0.224,0.5,0.5,0.5h23c0.276,0,0.5-0.224,0.5-0.5S23.776,18.5,23.5,18.5z"/></g></g><text x="0" y="39" fill="#000000" font-size="5px" font-weight="bold" font-family="'Helvetica Neue', Helvetica, Arial-Unicode, Arial, Sans-serif">Created by icon 54</text><text x="0" y="44" fill="#000000" font-size="5px" font-weight="bold" font-family="'Helvetica Neue', Helvetica, Arial-Unicode, Arial, Sans-serif">from the Noun Project</text></svg>