<svg xmlns="http://www.w3.org/2000/svg" data-name="Layer 1" viewBox="0 0 98 122.5" x="0px" y="0px"><title>23</title><g><path d="M46.6,74.9a8.7,8.7,0,1,0-8.7,8.7A8.7,8.7,0,0,0,46.6,74.9Zm-13.4,0a4.7,4.7,0,1,1,4.7,4.7A4.7,4.7,0,0,1,33.2,74.9Z"/><path d="M79,74.9a8.7,8.7,0,1,0-8.7,8.7A8.7,8.7,0,0,0,79,74.9Zm-13.4,0a4.7,4.7,0,1,1,4.7,4.7A4.7,4.7,0,0,1,65.6,74.9Z"/><path d="M24.7,14.4H13.3a2,2,0,0,0,0,4h9.8l7.7,38.4a7.9,7.9,0,0,0,7.8,6.4H73.2A7.9,7.9,0,0,0,81,57l5.7-24.5a2.1,2.1,0,0,0-.4-1.7,2.4,2.4,0,0,0-1.6-.7H29.5L26.7,16A2,2,0,0,0,24.7,14.4ZM82.2,34.1l-5.1,22a4,4,0,0,1-3.9,3.1H38.6A4.1,4.1,0,0,1,34.7,56L30.3,34.1Z"/></g><text x="0" y="113" fill="#000000" font-size="5px" font-weight="bold" font-family="'Helvetica Neue', Helvetica, Arial-Unicode, Arial, Sans-serif">Created by fizae</text><text x="0" y="118" fill="#000000" font-size="5px" font-weight="bold" font-family="'Helvetica Neue', Helvetica, Arial-Unicode, Arial, Sans-serif">from the Noun Project</text></svg>